<mxfile host="app.diagrams.net" modified="2024-04-12T03:09:32.979Z" agent="Mozilla/5.0 (Windows NT 10.0; Win64; x64) AppleWebKit/537.36 (KHTML, like Gecko) Chrome/123.0.0.0 Safari/537.36 Edg/123.0.0.0" etag="_CycNWoJKfEnsK-69eRP" version="24.2.3" type="github">
  <diagram id="R2lEEEUBdFMjLlhIrx00" name="Page-1">
    <mxGraphModel dx="1972" dy="823" grid="1" gridSize="10" guides="1" tooltips="1" connect="1" arrows="1" fold="1" page="1" pageScale="1" pageWidth="2336" pageHeight="1654" math="0" shadow="0" extFonts="Permanent Marker^https://fonts.googleapis.com/css?family=Permanent+Marker">
      <root>
        <mxCell id="0" />
        <mxCell id="1" parent="0" />
        <mxCell id="C-vyLk0tnHw3VtMMgP7b-23" value="USER" style="shape=table;startSize=30;container=1;collapsible=1;childLayout=tableLayout;fixedRows=1;rowLines=1;fontStyle=1;align=center;resizeLast=1;" parent="1" vertex="1">
          <mxGeometry x="503" y="839" width="370" height="148" as="geometry" />
        </mxCell>
        <mxCell id="C-vyLk0tnHw3VtMMgP7b-24" value="" style="shape=partialRectangle;collapsible=0;dropTarget=0;pointerEvents=0;fillColor=none;points=[[0,0.5],[1,0.5]];portConstraint=eastwest;top=0;left=0;right=0;bottom=1;" parent="C-vyLk0tnHw3VtMMgP7b-23" vertex="1">
          <mxGeometry y="30" width="370" height="30" as="geometry" />
        </mxCell>
        <mxCell id="C-vyLk0tnHw3VtMMgP7b-25" value="PK" style="shape=partialRectangle;overflow=hidden;connectable=0;fillColor=none;top=0;left=0;bottom=0;right=0;fontStyle=1;" parent="C-vyLk0tnHw3VtMMgP7b-24" vertex="1">
          <mxGeometry width="30" height="30" as="geometry">
            <mxRectangle width="30" height="30" as="alternateBounds" />
          </mxGeometry>
        </mxCell>
        <mxCell id="C-vyLk0tnHw3VtMMgP7b-26" value="user_id int NOT NULL " style="shape=partialRectangle;overflow=hidden;connectable=0;fillColor=none;top=0;left=0;bottom=0;right=0;align=left;spacingLeft=6;fontStyle=5;" parent="C-vyLk0tnHw3VtMMgP7b-24" vertex="1">
          <mxGeometry x="30" width="340" height="30" as="geometry">
            <mxRectangle width="340" height="30" as="alternateBounds" />
          </mxGeometry>
        </mxCell>
        <mxCell id="C-vyLk0tnHw3VtMMgP7b-27" value="" style="shape=partialRectangle;collapsible=0;dropTarget=0;pointerEvents=0;fillColor=none;points=[[0,0.5],[1,0.5]];portConstraint=eastwest;top=0;left=0;right=0;bottom=0;" parent="C-vyLk0tnHw3VtMMgP7b-23" vertex="1">
          <mxGeometry y="60" width="370" height="88" as="geometry" />
        </mxCell>
        <mxCell id="C-vyLk0tnHw3VtMMgP7b-28" value="" style="shape=partialRectangle;overflow=hidden;connectable=0;fillColor=none;top=0;left=0;bottom=0;right=0;" parent="C-vyLk0tnHw3VtMMgP7b-27" vertex="1">
          <mxGeometry width="30" height="88" as="geometry">
            <mxRectangle width="30" height="88" as="alternateBounds" />
          </mxGeometry>
        </mxCell>
        <mxCell id="C-vyLk0tnHw3VtMMgP7b-29" value="username tinytext (100) NOT NULL&#xa;{emails} tinytext (200) NOT NULL&#xa;{phone_numbers} tinytext (500)&#xa;password tinytext (100) NOT NULL&#xa;address (country, city, area) longtext NOT NULL" style="shape=partialRectangle;overflow=hidden;connectable=0;fillColor=none;top=0;left=0;bottom=0;right=0;align=left;spacingLeft=6;" parent="C-vyLk0tnHw3VtMMgP7b-27" vertex="1">
          <mxGeometry x="30" width="340" height="88" as="geometry">
            <mxRectangle width="340" height="88" as="alternateBounds" />
          </mxGeometry>
        </mxCell>
        <mxCell id="Pu0zvANKRgPWiGbxQ75c-2" value="" style="fontSize=12;html=1;endArrow=ERmandOne;startArrow=ERmandOne;rounded=0;entryX=0.55;entryY=1.003;entryDx=0;entryDy=0;entryPerimeter=0;" parent="1" target="Pu0zvANKRgPWiGbxQ75c-6" edge="1">
          <mxGeometry width="100" height="100" relative="1" as="geometry">
            <mxPoint x="1480" y="1360" as="sourcePoint" />
            <mxPoint x="1479" y="1351" as="targetPoint" />
          </mxGeometry>
        </mxCell>
        <mxCell id="Pu0zvANKRgPWiGbxQ75c-3" value="" style="fontSize=12;html=1;endArrow=ERzeroToMany;startArrow=ERmandOne;rounded=0;exitX=0.75;exitY=1;exitDx=0;exitDy=0;entryX=0;entryY=0.5;entryDx=0;entryDy=0;edgeStyle=orthogonalEdgeStyle;" parent="1" source="Pu0zvANKRgPWiGbxQ75c-96" target="Pu0zvANKRgPWiGbxQ75c-125" edge="1">
          <mxGeometry width="100" height="100" relative="1" as="geometry">
            <mxPoint x="933" y="1169" as="sourcePoint" />
            <mxPoint x="1646.5569999999998" y="674.19" as="targetPoint" />
          </mxGeometry>
        </mxCell>
        <mxCell id="Pu0zvANKRgPWiGbxQ75c-8" value="" style="group" parent="1" vertex="1" connectable="0">
          <mxGeometry x="1249" y="991" width="420" height="270" as="geometry" />
        </mxCell>
        <mxCell id="Pu0zvANKRgPWiGbxQ75c-6" value="" style="verticalLabelPosition=bottom;verticalAlign=top;html=1;shape=mxgraph.basic.rect;fillColor2=none;strokeWidth=1;size=20;indent=5;fillColor=none;" parent="Pu0zvANKRgPWiGbxQ75c-8" vertex="1">
          <mxGeometry width="420" height="270" as="geometry" />
        </mxCell>
        <mxCell id="C-vyLk0tnHw3VtMMgP7b-2" value="INTERVENTION" style="shape=table;startSize=30;container=1;collapsible=1;childLayout=tableLayout;fixedRows=1;rowLines=1;fontStyle=1;align=center;resizeLast=1;strokeColor=default;noLabel=0;" parent="Pu0zvANKRgPWiGbxQ75c-8" vertex="1">
          <mxGeometry x="10" y="7.941176470588235" width="400" height="250" as="geometry" />
        </mxCell>
        <mxCell id="C-vyLk0tnHw3VtMMgP7b-3" value="" style="shape=partialRectangle;collapsible=0;dropTarget=0;pointerEvents=0;fillColor=none;points=[[0,0.5],[1,0.5]];portConstraint=eastwest;top=0;left=0;right=0;bottom=1;" parent="C-vyLk0tnHw3VtMMgP7b-2" vertex="1">
          <mxGeometry y="30" width="400" height="30" as="geometry" />
        </mxCell>
        <mxCell id="C-vyLk0tnHw3VtMMgP7b-4" value="PK" style="shape=partialRectangle;overflow=hidden;connectable=0;fillColor=none;top=0;left=0;bottom=0;right=0;fontStyle=1;" parent="C-vyLk0tnHw3VtMMgP7b-3" vertex="1">
          <mxGeometry width="30" height="30" as="geometry">
            <mxRectangle width="30" height="30" as="alternateBounds" />
          </mxGeometry>
        </mxCell>
        <mxCell id="C-vyLk0tnHw3VtMMgP7b-5" value="intervention_id int NOT NULL " style="shape=partialRectangle;overflow=hidden;connectable=0;fillColor=none;top=0;left=0;bottom=0;right=0;align=left;spacingLeft=6;fontStyle=5;" parent="C-vyLk0tnHw3VtMMgP7b-3" vertex="1">
          <mxGeometry x="30" width="370" height="30" as="geometry">
            <mxRectangle width="370" height="30" as="alternateBounds" />
          </mxGeometry>
        </mxCell>
        <mxCell id="C-vyLk0tnHw3VtMMgP7b-6" value="" style="shape=partialRectangle;collapsible=0;dropTarget=0;pointerEvents=0;fillColor=none;points=[[0,0.5],[1,0.5]];portConstraint=eastwest;top=0;left=0;right=0;bottom=0;" parent="C-vyLk0tnHw3VtMMgP7b-2" vertex="1">
          <mxGeometry y="60" width="400" height="30" as="geometry" />
        </mxCell>
        <mxCell id="C-vyLk0tnHw3VtMMgP7b-7" value="FK1" style="shape=partialRectangle;overflow=hidden;connectable=0;fillColor=none;top=0;left=0;bottom=0;right=0;" parent="C-vyLk0tnHw3VtMMgP7b-6" vertex="1">
          <mxGeometry width="30" height="30" as="geometry">
            <mxRectangle width="30" height="30" as="alternateBounds" />
          </mxGeometry>
        </mxCell>
        <mxCell id="C-vyLk0tnHw3VtMMgP7b-8" value="organizer_id int NOT NULL" style="shape=partialRectangle;overflow=hidden;connectable=0;fillColor=none;top=0;left=0;bottom=0;right=0;align=left;spacingLeft=6;" parent="C-vyLk0tnHw3VtMMgP7b-6" vertex="1">
          <mxGeometry x="30" width="370" height="30" as="geometry">
            <mxRectangle width="370" height="30" as="alternateBounds" />
          </mxGeometry>
        </mxCell>
        <mxCell id="C-vyLk0tnHw3VtMMgP7b-9" value="" style="shape=partialRectangle;collapsible=0;dropTarget=0;pointerEvents=0;fillColor=none;points=[[0,0.5],[1,0.5]];portConstraint=eastwest;top=0;left=0;right=0;bottom=0;" parent="C-vyLk0tnHw3VtMMgP7b-2" vertex="1">
          <mxGeometry y="90" width="400" height="160" as="geometry" />
        </mxCell>
        <mxCell id="C-vyLk0tnHw3VtMMgP7b-10" value="" style="shape=partialRectangle;overflow=hidden;connectable=0;fillColor=none;top=0;left=0;bottom=0;right=0;" parent="C-vyLk0tnHw3VtMMgP7b-9" vertex="1">
          <mxGeometry width="30" height="160" as="geometry">
            <mxRectangle width="30" height="160" as="alternateBounds" />
          </mxGeometry>
        </mxCell>
        <mxCell id="C-vyLk0tnHw3VtMMgP7b-11" value="start_date date NOT NULL&#xa;end_date date NOT NULL&#xa;event_name char(300) NOT NULL&#xa;event_venue char(400) NOT NULL&#xa;event_details longtext NOT NULL&#xa;event_status ENUM (&#39;Upcoming&#39;,&#xa;                             &#39;Ongoing&#39;,&#xa;                             &#39;Cancelled&#39;,&#xa;                             &#39;Postponed&#39;,&#xa;                             &#39;Completed&#39;) NOT NULL DEFAULT &#39;Upcoming&#39;" style="shape=partialRectangle;overflow=hidden;connectable=0;fillColor=none;top=0;left=0;bottom=0;right=0;align=left;spacingLeft=6;" parent="C-vyLk0tnHw3VtMMgP7b-9" vertex="1">
          <mxGeometry x="30" width="370" height="160" as="geometry">
            <mxRectangle width="370" height="160" as="alternateBounds" />
          </mxGeometry>
        </mxCell>
        <mxCell id="Pu0zvANKRgPWiGbxQ75c-10" value="" style="group" parent="1" vertex="1" connectable="0">
          <mxGeometry x="1310" y="1361" width="340" height="150" as="geometry" />
        </mxCell>
        <mxCell id="Pu0zvANKRgPWiGbxQ75c-9" value="" style="verticalLabelPosition=bottom;verticalAlign=top;html=1;shape=mxgraph.basic.rect;fillColor2=none;strokeWidth=1;size=20;indent=5;fillColor=none;" parent="Pu0zvANKRgPWiGbxQ75c-10" vertex="1">
          <mxGeometry width="340" height="150" as="geometry" />
        </mxCell>
        <mxCell id="C-vyLk0tnHw3VtMMgP7b-13" value="INTERVENTION_RESULT" style="shape=table;startSize=30;container=1;collapsible=1;childLayout=tableLayout;fixedRows=1;rowLines=1;fontStyle=1;align=center;resizeLast=1;" parent="Pu0zvANKRgPWiGbxQ75c-10" vertex="1">
          <mxGeometry x="7.5" y="10" width="325" height="130" as="geometry" />
        </mxCell>
        <mxCell id="C-vyLk0tnHw3VtMMgP7b-14" value="" style="shape=partialRectangle;collapsible=0;dropTarget=0;pointerEvents=0;fillColor=none;points=[[0,0.5],[1,0.5]];portConstraint=eastwest;top=0;left=0;right=0;bottom=1;" parent="C-vyLk0tnHw3VtMMgP7b-13" vertex="1">
          <mxGeometry y="30" width="325" height="30" as="geometry" />
        </mxCell>
        <mxCell id="C-vyLk0tnHw3VtMMgP7b-15" value="PK" style="shape=partialRectangle;overflow=hidden;connectable=0;fillColor=none;top=0;left=0;bottom=0;right=0;fontStyle=1;" parent="C-vyLk0tnHw3VtMMgP7b-14" vertex="1">
          <mxGeometry width="30" height="30" as="geometry">
            <mxRectangle width="30" height="30" as="alternateBounds" />
          </mxGeometry>
        </mxCell>
        <mxCell id="C-vyLk0tnHw3VtMMgP7b-16" value="result_id int NOT NULL " style="shape=partialRectangle;overflow=hidden;connectable=0;fillColor=none;top=0;left=0;bottom=0;right=0;align=left;spacingLeft=6;fontStyle=5;" parent="C-vyLk0tnHw3VtMMgP7b-14" vertex="1">
          <mxGeometry x="30" width="295" height="30" as="geometry">
            <mxRectangle width="295" height="30" as="alternateBounds" />
          </mxGeometry>
        </mxCell>
        <mxCell id="C-vyLk0tnHw3VtMMgP7b-17" value="" style="shape=partialRectangle;collapsible=0;dropTarget=0;pointerEvents=0;fillColor=none;points=[[0,0.5],[1,0.5]];portConstraint=eastwest;top=0;left=0;right=0;bottom=0;" parent="C-vyLk0tnHw3VtMMgP7b-13" vertex="1">
          <mxGeometry y="60" width="325" height="30" as="geometry" />
        </mxCell>
        <mxCell id="C-vyLk0tnHw3VtMMgP7b-18" value="FK1&#xa;FK2" style="shape=partialRectangle;overflow=hidden;connectable=0;fillColor=none;top=0;left=0;bottom=0;right=0;" parent="C-vyLk0tnHw3VtMMgP7b-17" vertex="1">
          <mxGeometry width="30" height="30" as="geometry">
            <mxRectangle width="30" height="30" as="alternateBounds" />
          </mxGeometry>
        </mxCell>
        <mxCell id="C-vyLk0tnHw3VtMMgP7b-19" value="author_id int NOT NULL&#xa;intervention_id int NOT NULL" style="shape=partialRectangle;overflow=hidden;connectable=0;fillColor=none;top=0;left=0;bottom=0;right=0;align=left;spacingLeft=6;" parent="C-vyLk0tnHw3VtMMgP7b-17" vertex="1">
          <mxGeometry x="30" width="295" height="30" as="geometry">
            <mxRectangle width="295" height="30" as="alternateBounds" />
          </mxGeometry>
        </mxCell>
        <mxCell id="C-vyLk0tnHw3VtMMgP7b-20" value="" style="shape=partialRectangle;collapsible=0;dropTarget=0;pointerEvents=0;fillColor=none;points=[[0,0.5],[1,0.5]];portConstraint=eastwest;top=0;left=0;right=0;bottom=0;" parent="C-vyLk0tnHw3VtMMgP7b-13" vertex="1">
          <mxGeometry y="90" width="325" height="30" as="geometry" />
        </mxCell>
        <mxCell id="C-vyLk0tnHw3VtMMgP7b-21" value="" style="shape=partialRectangle;overflow=hidden;connectable=0;fillColor=none;top=0;left=0;bottom=0;right=0;" parent="C-vyLk0tnHw3VtMMgP7b-20" vertex="1">
          <mxGeometry width="30" height="30" as="geometry">
            <mxRectangle width="30" height="30" as="alternateBounds" />
          </mxGeometry>
        </mxCell>
        <mxCell id="C-vyLk0tnHw3VtMMgP7b-22" value="before_intervention_description longtext NOT NULL&#xa;after_intervention_description longtext NOT NULL" style="shape=partialRectangle;overflow=hidden;connectable=0;fillColor=none;top=0;left=0;bottom=0;right=0;align=left;spacingLeft=6;" parent="C-vyLk0tnHw3VtMMgP7b-20" vertex="1">
          <mxGeometry x="30" width="295" height="30" as="geometry">
            <mxRectangle width="295" height="30" as="alternateBounds" />
          </mxGeometry>
        </mxCell>
        <mxCell id="Pu0zvANKRgPWiGbxQ75c-21" value="" style="group" parent="1" vertex="1" connectable="0">
          <mxGeometry x="1739" y="1361" width="490" height="180" as="geometry" />
        </mxCell>
        <mxCell id="Pu0zvANKRgPWiGbxQ75c-22" value="" style="verticalLabelPosition=bottom;verticalAlign=top;html=1;shape=mxgraph.basic.rect;fillColor2=none;strokeWidth=1;size=20;indent=5;fillColor=none;" parent="Pu0zvANKRgPWiGbxQ75c-21" vertex="1">
          <mxGeometry width="490" height="180" as="geometry" />
        </mxCell>
        <mxCell id="Pu0zvANKRgPWiGbxQ75c-23" value="CHART" style="shape=table;startSize=30;container=1;collapsible=1;childLayout=tableLayout;fixedRows=1;rowLines=1;fontStyle=1;align=center;resizeLast=1;" parent="Pu0zvANKRgPWiGbxQ75c-21" vertex="1">
          <mxGeometry x="7.5" y="8.571428571428571" width="472.5" height="160" as="geometry" />
        </mxCell>
        <mxCell id="Pu0zvANKRgPWiGbxQ75c-24" value="" style="shape=partialRectangle;collapsible=0;dropTarget=0;pointerEvents=0;fillColor=none;points=[[0,0.5],[1,0.5]];portConstraint=eastwest;top=0;left=0;right=0;bottom=1;" parent="Pu0zvANKRgPWiGbxQ75c-23" vertex="1">
          <mxGeometry y="30" width="472.5" height="30" as="geometry" />
        </mxCell>
        <mxCell id="Pu0zvANKRgPWiGbxQ75c-25" value="PK" style="shape=partialRectangle;overflow=hidden;connectable=0;fillColor=none;top=0;left=0;bottom=0;right=0;fontStyle=1;" parent="Pu0zvANKRgPWiGbxQ75c-24" vertex="1">
          <mxGeometry width="30" height="30" as="geometry">
            <mxRectangle width="30" height="30" as="alternateBounds" />
          </mxGeometry>
        </mxCell>
        <mxCell id="Pu0zvANKRgPWiGbxQ75c-26" value="chart_id int NOT NULL " style="shape=partialRectangle;overflow=hidden;connectable=0;fillColor=none;top=0;left=0;bottom=0;right=0;align=left;spacingLeft=6;fontStyle=5;" parent="Pu0zvANKRgPWiGbxQ75c-24" vertex="1">
          <mxGeometry x="30" width="442.5" height="30" as="geometry">
            <mxRectangle width="442.5" height="30" as="alternateBounds" />
          </mxGeometry>
        </mxCell>
        <mxCell id="Pu0zvANKRgPWiGbxQ75c-27" value="" style="shape=partialRectangle;collapsible=0;dropTarget=0;pointerEvents=0;fillColor=none;points=[[0,0.5],[1,0.5]];portConstraint=eastwest;top=0;left=0;right=0;bottom=0;" parent="Pu0zvANKRgPWiGbxQ75c-23" vertex="1">
          <mxGeometry y="60" width="472.5" height="30" as="geometry" />
        </mxCell>
        <mxCell id="Pu0zvANKRgPWiGbxQ75c-28" value="FK1&#xa;FK2" style="shape=partialRectangle;overflow=hidden;connectable=0;fillColor=none;top=0;left=0;bottom=0;right=0;" parent="Pu0zvANKRgPWiGbxQ75c-27" vertex="1">
          <mxGeometry width="30" height="30" as="geometry">
            <mxRectangle width="30" height="30" as="alternateBounds" />
          </mxGeometry>
        </mxCell>
        <mxCell id="Pu0zvANKRgPWiGbxQ75c-29" value="author_id int NOT NULL&#xa;result_id int NOT NULL" style="shape=partialRectangle;overflow=hidden;connectable=0;fillColor=none;top=0;left=0;bottom=0;right=0;align=left;spacingLeft=6;" parent="Pu0zvANKRgPWiGbxQ75c-27" vertex="1">
          <mxGeometry x="30" width="442.5" height="30" as="geometry">
            <mxRectangle width="442.5" height="30" as="alternateBounds" />
          </mxGeometry>
        </mxCell>
        <mxCell id="Pu0zvANKRgPWiGbxQ75c-30" value="" style="shape=partialRectangle;collapsible=0;dropTarget=0;pointerEvents=0;fillColor=none;points=[[0,0.5],[1,0.5]];portConstraint=eastwest;top=0;left=0;right=0;bottom=0;" parent="Pu0zvANKRgPWiGbxQ75c-23" vertex="1">
          <mxGeometry y="90" width="472.5" height="70" as="geometry" />
        </mxCell>
        <mxCell id="Pu0zvANKRgPWiGbxQ75c-31" value="" style="shape=partialRectangle;overflow=hidden;connectable=0;fillColor=none;top=0;left=0;bottom=0;right=0;" parent="Pu0zvANKRgPWiGbxQ75c-30" vertex="1">
          <mxGeometry width="30" height="70" as="geometry">
            <mxRectangle width="30" height="70" as="alternateBounds" />
          </mxGeometry>
        </mxCell>
        <mxCell id="Pu0zvANKRgPWiGbxQ75c-32" value="chart_type ENUM (&#39;Bar&#39;, &#39;Pie&#39;, &#39;Line Graph&#39;) NOT NULL DEFAULT &#39;Bar&#39;&#xa;data longtext NOT NULL // JSON object to keep labels and data tightly coupled&#xa;chart_placement ENUM (&#39;Before Intervention&#39;, &#39;After Intervention&#39;)" style="shape=partialRectangle;overflow=hidden;connectable=0;fillColor=none;top=0;left=0;bottom=0;right=0;align=left;spacingLeft=6;" parent="Pu0zvANKRgPWiGbxQ75c-30" vertex="1">
          <mxGeometry x="30" width="442.5" height="70" as="geometry">
            <mxRectangle width="442.5" height="70" as="alternateBounds" />
          </mxGeometry>
        </mxCell>
        <mxCell id="Pu0zvANKRgPWiGbxQ75c-33" value="" style="fontSize=12;html=1;endArrow=ERzeroToMany;startArrow=ERmandOne;rounded=0;exitX=0.993;exitY=0.515;exitDx=0;exitDy=0;exitPerimeter=0;entryX=-0.003;entryY=0.406;entryDx=0;entryDy=0;entryPerimeter=0;" parent="1" source="Pu0zvANKRgPWiGbxQ75c-9" target="Pu0zvANKRgPWiGbxQ75c-22" edge="1">
          <mxGeometry width="100" height="100" relative="1" as="geometry">
            <mxPoint x="1669" y="1721" as="sourcePoint" />
            <mxPoint x="1769" y="1621" as="targetPoint" />
          </mxGeometry>
        </mxCell>
        <mxCell id="Pu0zvANKRgPWiGbxQ75c-66" value="ARTICLE" style="shape=table;startSize=30;container=1;collapsible=1;childLayout=tableLayout;fixedRows=1;rowLines=1;fontStyle=1;align=center;resizeLast=1;strokeColor=default;noLabel=0;" parent="1" vertex="1">
          <mxGeometry x="810" y="67" width="400" height="170.00000000000003" as="geometry" />
        </mxCell>
        <mxCell id="Pu0zvANKRgPWiGbxQ75c-67" value="" style="shape=partialRectangle;collapsible=0;dropTarget=0;pointerEvents=0;fillColor=none;points=[[0,0.5],[1,0.5]];portConstraint=eastwest;top=0;left=0;right=0;bottom=1;" parent="Pu0zvANKRgPWiGbxQ75c-66" vertex="1">
          <mxGeometry y="30" width="400" height="30" as="geometry" />
        </mxCell>
        <mxCell id="Pu0zvANKRgPWiGbxQ75c-68" value="PK" style="shape=partialRectangle;overflow=hidden;connectable=0;fillColor=none;top=0;left=0;bottom=0;right=0;fontStyle=1;" parent="Pu0zvANKRgPWiGbxQ75c-67" vertex="1">
          <mxGeometry width="30" height="30" as="geometry">
            <mxRectangle width="30" height="30" as="alternateBounds" />
          </mxGeometry>
        </mxCell>
        <mxCell id="Pu0zvANKRgPWiGbxQ75c-69" value="article_id int NOT NULL " style="shape=partialRectangle;overflow=hidden;connectable=0;fillColor=none;top=0;left=0;bottom=0;right=0;align=left;spacingLeft=6;fontStyle=5;" parent="Pu0zvANKRgPWiGbxQ75c-67" vertex="1">
          <mxGeometry x="30" width="370" height="30" as="geometry">
            <mxRectangle width="370" height="30" as="alternateBounds" />
          </mxGeometry>
        </mxCell>
        <mxCell id="Pu0zvANKRgPWiGbxQ75c-70" value="" style="shape=partialRectangle;collapsible=0;dropTarget=0;pointerEvents=0;fillColor=none;points=[[0,0.5],[1,0.5]];portConstraint=eastwest;top=0;left=0;right=0;bottom=0;" parent="Pu0zvANKRgPWiGbxQ75c-66" vertex="1">
          <mxGeometry y="60" width="400" height="30" as="geometry" />
        </mxCell>
        <mxCell id="Pu0zvANKRgPWiGbxQ75c-71" value="FK1" style="shape=partialRectangle;overflow=hidden;connectable=0;fillColor=none;top=0;left=0;bottom=0;right=0;" parent="Pu0zvANKRgPWiGbxQ75c-70" vertex="1">
          <mxGeometry width="30" height="30" as="geometry">
            <mxRectangle width="30" height="30" as="alternateBounds" />
          </mxGeometry>
        </mxCell>
        <mxCell id="Pu0zvANKRgPWiGbxQ75c-72" value="author_id int NOT NULL  // refers to USER" style="shape=partialRectangle;overflow=hidden;connectable=0;fillColor=none;top=0;left=0;bottom=0;right=0;align=left;spacingLeft=6;" parent="Pu0zvANKRgPWiGbxQ75c-70" vertex="1">
          <mxGeometry x="30" width="370" height="30" as="geometry">
            <mxRectangle width="370" height="30" as="alternateBounds" />
          </mxGeometry>
        </mxCell>
        <mxCell id="Pu0zvANKRgPWiGbxQ75c-73" value="" style="shape=partialRectangle;collapsible=0;dropTarget=0;pointerEvents=0;fillColor=none;points=[[0,0.5],[1,0.5]];portConstraint=eastwest;top=0;left=0;right=0;bottom=0;" parent="Pu0zvANKRgPWiGbxQ75c-66" vertex="1">
          <mxGeometry y="90" width="400" height="70" as="geometry" />
        </mxCell>
        <mxCell id="Pu0zvANKRgPWiGbxQ75c-74" value="" style="shape=partialRectangle;overflow=hidden;connectable=0;fillColor=none;top=0;left=0;bottom=0;right=0;" parent="Pu0zvANKRgPWiGbxQ75c-73" vertex="1">
          <mxGeometry width="30" height="70" as="geometry">
            <mxRectangle width="30" height="70" as="alternateBounds" />
          </mxGeometry>
        </mxCell>
        <mxCell id="Pu0zvANKRgPWiGbxQ75c-75" value="date_published date NOT NULL&#xa;title tinytext(300) NOT NULL&#xa;content longtext NOT NULL" style="shape=partialRectangle;overflow=hidden;connectable=0;fillColor=none;top=0;left=0;bottom=0;right=0;align=left;spacingLeft=6;" parent="Pu0zvANKRgPWiGbxQ75c-73" vertex="1">
          <mxGeometry x="30" width="370" height="70" as="geometry">
            <mxRectangle width="370" height="70" as="alternateBounds" />
          </mxGeometry>
        </mxCell>
        <mxCell id="Pu0zvANKRgPWiGbxQ75c-78" value="" style="edgeStyle=orthogonalEdgeStyle;fontSize=12;html=1;endArrow=ERzeroToMany;startArrow=ERmandOne;rounded=0;exitX=0.75;exitY=0;exitDx=0;exitDy=0;entryX=0.495;entryY=1.005;entryDx=0;entryDy=0;entryPerimeter=0;" parent="1" target="Pu0zvANKRgPWiGbxQ75c-76" edge="1" source="Pu0zvANKRgPWiGbxQ75c-95">
          <mxGeometry width="100" height="100" relative="1" as="geometry">
            <mxPoint x="1178" y="704" as="sourcePoint" />
            <mxPoint x="356" y="1390.477495335821" as="targetPoint" />
            <Array as="points">
              <mxPoint x="1531" y="570" />
              <mxPoint x="2280" y="570" />
              <mxPoint x="2280" y="1580" />
              <mxPoint x="356" y="1580" />
            </Array>
          </mxGeometry>
        </mxCell>
        <mxCell id="Pu0zvANKRgPWiGbxQ75c-81" value="" style="edgeStyle=orthogonalEdgeStyle;fontSize=12;html=1;endArrow=ERzeroToMany;startArrow=ERmandOne;rounded=0;exitX=-0.005;exitY=0.773;exitDx=0;exitDy=0;exitPerimeter=0;entryX=1.006;entryY=0.503;entryDx=0;entryDy=0;entryPerimeter=0;" parent="1" source="Pu0zvANKRgPWiGbxQ75c-6" target="Pu0zvANKRgPWiGbxQ75c-76" edge="1">
          <mxGeometry width="100" height="100" relative="1" as="geometry">
            <mxPoint x="1155" y="649" as="sourcePoint" />
            <mxPoint x="258" y="1417" as="targetPoint" />
          </mxGeometry>
        </mxCell>
        <mxCell id="Pu0zvANKRgPWiGbxQ75c-90" value="ADMINISTRATOR" style="swimlane;fontStyle=1;childLayout=stackLayout;horizontal=1;startSize=26;horizontalStack=0;resizeParent=1;resizeParentMax=0;resizeLast=0;collapsible=1;marginBottom=0;align=center;fontSize=14;" parent="1" vertex="1">
          <mxGeometry x="270" y="647" width="160" height="57" as="geometry" />
        </mxCell>
        <mxCell id="Pu0zvANKRgPWiGbxQ75c-94" value="HEALTH_CARE_PROVIDER" style="swimlane;fontStyle=1;childLayout=stackLayout;horizontal=1;startSize=26;horizontalStack=0;resizeParent=1;resizeParentMax=0;resizeLast=0;collapsible=1;marginBottom=0;align=center;fontSize=14;" parent="1" vertex="1">
          <mxGeometry x="478" y="647" width="200" height="57" as="geometry" />
        </mxCell>
        <mxCell id="Pu0zvANKRgPWiGbxQ75c-95" value="INTERVENTION_ORGANIZER" style="swimlane;fontStyle=1;childLayout=stackLayout;horizontal=1;startSize=26;horizontalStack=0;resizeParent=1;resizeParentMax=0;resizeLast=0;collapsible=1;marginBottom=0;align=center;fontSize=14;" parent="1" vertex="1">
          <mxGeometry x="1370" y="640" width="215" height="57" as="geometry" />
        </mxCell>
        <mxCell id="Pu0zvANKRgPWiGbxQ75c-96" value="INTERVENTION_VOLUNTEER" style="swimlane;fontStyle=1;childLayout=stackLayout;horizontal=1;startSize=26;horizontalStack=0;resizeParent=1;resizeParentMax=0;resizeLast=0;collapsible=1;marginBottom=0;align=center;fontSize=14;" parent="1" vertex="1">
          <mxGeometry x="1130" y="640" width="215" height="57" as="geometry" />
        </mxCell>
        <mxCell id="Pu0zvANKRgPWiGbxQ75c-97" value="POLICY_MAKER" style="swimlane;fontStyle=1;childLayout=stackLayout;horizontal=1;startSize=26;horizontalStack=0;resizeParent=1;resizeParentMax=0;resizeLast=0;collapsible=1;marginBottom=0;align=center;fontSize=14;" parent="1" vertex="1">
          <mxGeometry x="747" y="647" width="150" height="57" as="geometry" />
        </mxCell>
        <mxCell id="Pu0zvANKRgPWiGbxQ75c-98" value="MEMBER" style="swimlane;fontStyle=1;childLayout=stackLayout;horizontal=1;startSize=26;horizontalStack=0;resizeParent=1;resizeParentMax=0;resizeLast=0;collapsible=1;marginBottom=0;align=center;fontSize=14;" parent="1" vertex="1">
          <mxGeometry x="933" y="647" width="150" height="57" as="geometry" />
        </mxCell>
        <mxCell id="Pu0zvANKRgPWiGbxQ75c-100" value="" style="fontSize=12;html=1;endArrow=ERzeroToMany;startArrow=ERmandOne;rounded=0;exitX=0.5;exitY=0;exitDx=0;exitDy=0;entryX=0;entryY=0.5;entryDx=0;entryDy=0;edgeStyle=orthogonalEdgeStyle;" parent="1" source="Pu0zvANKRgPWiGbxQ75c-90" target="Pu0zvANKRgPWiGbxQ75c-104" edge="1">
          <mxGeometry width="100" height="100" relative="1" as="geometry">
            <mxPoint x="70" y="430" as="sourcePoint" />
            <mxPoint x="170" y="330" as="targetPoint" />
          </mxGeometry>
        </mxCell>
        <mxCell id="Pu0zvANKRgPWiGbxQ75c-101" value="" style="fontSize=12;html=1;endArrow=ERzeroToMany;startArrow=ERmandOne;rounded=0;exitX=0.5;exitY=0;exitDx=0;exitDy=0;entryX=0.25;entryY=1;entryDx=0;entryDy=0;edgeStyle=orthogonalEdgeStyle;" parent="1" source="Pu0zvANKRgPWiGbxQ75c-94" target="Pu0zvANKRgPWiGbxQ75c-105" edge="1">
          <mxGeometry width="100" height="100" relative="1" as="geometry">
            <mxPoint x="690" y="660" as="sourcePoint" />
            <mxPoint x="790" y="560" as="targetPoint" />
          </mxGeometry>
        </mxCell>
        <mxCell id="Pu0zvANKRgPWiGbxQ75c-102" value="" style="ellipse;whiteSpace=wrap;html=1;aspect=fixed;" parent="1" vertex="1">
          <mxGeometry x="983.5" y="327" width="53" height="53" as="geometry" />
        </mxCell>
        <mxCell id="Pu0zvANKRgPWiGbxQ75c-103" value="" style="endArrow=none;html=1;rounded=0;entryX=0.5;entryY=1;entryDx=0;entryDy=0;exitX=0.5;exitY=0;exitDx=0;exitDy=0;shape=link;strokeWidth=2;" parent="1" source="Pu0zvANKRgPWiGbxQ75c-102" target="Pu0zvANKRgPWiGbxQ75c-66" edge="1">
          <mxGeometry width="50" height="50" relative="1" as="geometry">
            <mxPoint x="810" y="327" as="sourcePoint" />
            <mxPoint x="860" y="277" as="targetPoint" />
          </mxGeometry>
        </mxCell>
        <mxCell id="Pu0zvANKRgPWiGbxQ75c-104" value="FAQ_ARTICLE" style="swimlane;fontStyle=1;childLayout=stackLayout;horizontal=1;startSize=26;horizontalStack=0;resizeParent=1;resizeParentMax=0;resizeLast=0;collapsible=1;marginBottom=0;align=center;fontSize=14;" parent="1" vertex="1">
          <mxGeometry x="699" y="457" width="200" height="57" as="geometry" />
        </mxCell>
        <mxCell id="Pu0zvANKRgPWiGbxQ75c-105" value="BLOG_ARTICLE" style="swimlane;fontStyle=1;childLayout=stackLayout;horizontal=1;startSize=26;horizontalStack=0;resizeParent=1;resizeParentMax=0;resizeLast=0;collapsible=1;marginBottom=0;align=center;fontSize=14;" parent="1" vertex="1">
          <mxGeometry x="1090" y="457" width="200" height="57" as="geometry" />
        </mxCell>
        <mxCell id="Pu0zvANKRgPWiGbxQ75c-106" value="" style="endArrow=none;html=1;rounded=0;entryX=0;entryY=0.5;entryDx=0;entryDy=0;exitX=0.5;exitY=0;exitDx=0;exitDy=0;" parent="1" source="Pu0zvANKRgPWiGbxQ75c-104" target="Pu0zvANKRgPWiGbxQ75c-102" edge="1">
          <mxGeometry width="50" height="50" relative="1" as="geometry">
            <mxPoint x="834" y="427" as="sourcePoint" />
            <mxPoint x="933.9999999999995" y="347" as="targetPoint" />
          </mxGeometry>
        </mxCell>
        <mxCell id="Pu0zvANKRgPWiGbxQ75c-107" value="" style="endArrow=none;html=1;rounded=0;entryX=0.5;entryY=0;entryDx=0;entryDy=0;exitX=1;exitY=0.5;exitDx=0;exitDy=0;" parent="1" source="Pu0zvANKRgPWiGbxQ75c-102" target="Pu0zvANKRgPWiGbxQ75c-105" edge="1">
          <mxGeometry width="50" height="50" relative="1" as="geometry">
            <mxPoint x="1130" y="417" as="sourcePoint" />
            <mxPoint x="1301" y="337" as="targetPoint" />
          </mxGeometry>
        </mxCell>
        <mxCell id="Pu0zvANKRgPWiGbxQ75c-108" value="" style="group" parent="1" vertex="1" connectable="0">
          <mxGeometry x="148" y="1199" width="420" height="190" as="geometry" />
        </mxCell>
        <mxCell id="Pu0zvANKRgPWiGbxQ75c-76" value="" style="verticalLabelPosition=bottom;verticalAlign=top;html=1;shape=mxgraph.basic.rect;fillColor2=none;strokeWidth=1;size=20;indent=5;fillColor=none;" parent="Pu0zvANKRgPWiGbxQ75c-108" vertex="1">
          <mxGeometry width="420" height="190" as="geometry" />
        </mxCell>
        <mxCell id="Pu0zvANKRgPWiGbxQ75c-53" value="INTERVENTION_REPORT" style="shape=table;startSize=30;container=1;collapsible=1;childLayout=tableLayout;fixedRows=1;rowLines=1;fontStyle=1;align=center;resizeLast=1;strokeColor=default;noLabel=0;" parent="Pu0zvANKRgPWiGbxQ75c-108" vertex="1">
          <mxGeometry x="10" y="10" width="400" height="170.00000000000003" as="geometry" />
        </mxCell>
        <mxCell id="Pu0zvANKRgPWiGbxQ75c-54" value="" style="shape=partialRectangle;collapsible=0;dropTarget=0;pointerEvents=0;fillColor=none;points=[[0,0.5],[1,0.5]];portConstraint=eastwest;top=0;left=0;right=0;bottom=1;" parent="Pu0zvANKRgPWiGbxQ75c-53" vertex="1">
          <mxGeometry y="30" width="400" height="30" as="geometry" />
        </mxCell>
        <mxCell id="Pu0zvANKRgPWiGbxQ75c-55" value="PK" style="shape=partialRectangle;overflow=hidden;connectable=0;fillColor=none;top=0;left=0;bottom=0;right=0;fontStyle=1;" parent="Pu0zvANKRgPWiGbxQ75c-54" vertex="1">
          <mxGeometry width="30" height="30" as="geometry">
            <mxRectangle width="30" height="30" as="alternateBounds" />
          </mxGeometry>
        </mxCell>
        <mxCell id="Pu0zvANKRgPWiGbxQ75c-56" value="report_id int NOT NULL " style="shape=partialRectangle;overflow=hidden;connectable=0;fillColor=none;top=0;left=0;bottom=0;right=0;align=left;spacingLeft=6;fontStyle=5;" parent="Pu0zvANKRgPWiGbxQ75c-54" vertex="1">
          <mxGeometry x="30" width="370" height="30" as="geometry">
            <mxRectangle width="370" height="30" as="alternateBounds" />
          </mxGeometry>
        </mxCell>
        <mxCell id="Pu0zvANKRgPWiGbxQ75c-57" value="" style="shape=partialRectangle;collapsible=0;dropTarget=0;pointerEvents=0;fillColor=none;points=[[0,0.5],[1,0.5]];portConstraint=eastwest;top=0;left=0;right=0;bottom=0;" parent="Pu0zvANKRgPWiGbxQ75c-53" vertex="1">
          <mxGeometry y="60" width="400" height="50" as="geometry" />
        </mxCell>
        <mxCell id="Pu0zvANKRgPWiGbxQ75c-58" value="FK1&#xa;FK2" style="shape=partialRectangle;overflow=hidden;connectable=0;fillColor=none;top=0;left=0;bottom=0;right=0;" parent="Pu0zvANKRgPWiGbxQ75c-57" vertex="1">
          <mxGeometry width="30" height="50" as="geometry">
            <mxRectangle width="30" height="50" as="alternateBounds" />
          </mxGeometry>
        </mxCell>
        <mxCell id="Pu0zvANKRgPWiGbxQ75c-59" value="author_id int NOT NULL  // refers to USER&#xa;intervention_id int NOT NULL // referts to INTERVENTION" style="shape=partialRectangle;overflow=hidden;connectable=0;fillColor=none;top=0;left=0;bottom=0;right=0;align=left;spacingLeft=6;" parent="Pu0zvANKRgPWiGbxQ75c-57" vertex="1">
          <mxGeometry x="30" width="370" height="50" as="geometry">
            <mxRectangle width="370" height="50" as="alternateBounds" />
          </mxGeometry>
        </mxCell>
        <mxCell id="Pu0zvANKRgPWiGbxQ75c-60" value="" style="shape=partialRectangle;collapsible=0;dropTarget=0;pointerEvents=0;fillColor=none;points=[[0,0.5],[1,0.5]];portConstraint=eastwest;top=0;left=0;right=0;bottom=0;" parent="Pu0zvANKRgPWiGbxQ75c-53" vertex="1">
          <mxGeometry y="110" width="400" height="50" as="geometry" />
        </mxCell>
        <mxCell id="Pu0zvANKRgPWiGbxQ75c-61" value="" style="shape=partialRectangle;overflow=hidden;connectable=0;fillColor=none;top=0;left=0;bottom=0;right=0;" parent="Pu0zvANKRgPWiGbxQ75c-60" vertex="1">
          <mxGeometry width="30" height="50" as="geometry">
            <mxRectangle width="30" height="50" as="alternateBounds" />
          </mxGeometry>
        </mxCell>
        <mxCell id="Pu0zvANKRgPWiGbxQ75c-62" value="date_reported date NOT NULL&#xa;report_title tinytext(300) NOT NULL&#xa;report_content longtext NOT NULL" style="shape=partialRectangle;overflow=hidden;connectable=0;fillColor=none;top=0;left=0;bottom=0;right=0;align=left;spacingLeft=6;" parent="Pu0zvANKRgPWiGbxQ75c-60" vertex="1">
          <mxGeometry x="30" width="370" height="50" as="geometry">
            <mxRectangle width="370" height="50" as="alternateBounds" />
          </mxGeometry>
        </mxCell>
        <mxCell id="Pu0zvANKRgPWiGbxQ75c-109" value="" style="fontSize=12;html=1;endArrow=ERzeroToMany;startArrow=ERmandOne;rounded=0;exitX=0.5;exitY=1;exitDx=0;exitDy=0;entryX=1.002;entryY=0.345;entryDx=0;entryDy=0;entryPerimeter=0;edgeStyle=orthogonalEdgeStyle;" parent="1" source="Pu0zvANKRgPWiGbxQ75c-95" target="Pu0zvANKRgPWiGbxQ75c-6" edge="1">
          <mxGeometry width="100" height="100" relative="1" as="geometry">
            <mxPoint x="1207.52" y="727" as="sourcePoint" />
            <mxPoint x="1207.52" y="860" as="targetPoint" />
            <Array as="points">
              <mxPoint x="1478" y="740" />
              <mxPoint x="1780" y="740" />
              <mxPoint x="1780" y="1084" />
            </Array>
          </mxGeometry>
        </mxCell>
        <mxCell id="Pu0zvANKRgPWiGbxQ75c-110" value="" style="ellipse;whiteSpace=wrap;html=1;aspect=fixed;" parent="1" vertex="1">
          <mxGeometry x="959" y="837" width="50" height="50" as="geometry" />
        </mxCell>
        <mxCell id="Pu0zvANKRgPWiGbxQ75c-111" value="" style="endArrow=none;html=1;rounded=0;entryX=0.5;entryY=1;entryDx=0;entryDy=0;exitX=0;exitY=0;exitDx=0;exitDy=0;" parent="1" source="Pu0zvANKRgPWiGbxQ75c-110" target="Pu0zvANKRgPWiGbxQ75c-90" edge="1">
          <mxGeometry width="50" height="50" relative="1" as="geometry">
            <mxPoint x="799" y="837" as="sourcePoint" />
            <mxPoint x="999" y="747" as="targetPoint" />
          </mxGeometry>
        </mxCell>
        <mxCell id="Pu0zvANKRgPWiGbxQ75c-112" value="" style="endArrow=none;html=1;rounded=0;entryX=0;entryY=0.5;entryDx=0;entryDy=0;exitX=1;exitY=0.5;exitDx=0;exitDy=0;shape=link;strokeWidth=2;" parent="1" source="C-vyLk0tnHw3VtMMgP7b-24" target="Pu0zvANKRgPWiGbxQ75c-110" edge="1">
          <mxGeometry width="50" height="50" relative="1" as="geometry">
            <mxPoint x="788" y="967" as="sourcePoint" />
            <mxPoint x="922.9999999999995" y="857" as="targetPoint" />
          </mxGeometry>
        </mxCell>
        <mxCell id="Pu0zvANKRgPWiGbxQ75c-113" value="" style="endArrow=none;html=1;rounded=0;entryX=0.25;entryY=0;entryDx=0;entryDy=0;exitX=1;exitY=0;exitDx=0;exitDy=0;edgeStyle=orthogonalEdgeStyle;" parent="1" source="Pu0zvANKRgPWiGbxQ75c-110" target="Pu0zvANKRgPWiGbxQ75c-95" edge="1">
          <mxGeometry width="50" height="50" relative="1" as="geometry">
            <mxPoint x="1119" y="927" as="sourcePoint" />
            <mxPoint x="1179" y="967" as="targetPoint" />
            <Array as="points">
              <mxPoint x="1002" y="730" />
              <mxPoint x="1100" y="730" />
              <mxPoint x="1100" y="620" />
              <mxPoint x="1424" y="620" />
            </Array>
          </mxGeometry>
        </mxCell>
        <mxCell id="Pu0zvANKRgPWiGbxQ75c-114" value="" style="endArrow=none;html=1;rounded=0;entryX=0.5;entryY=1;entryDx=0;entryDy=0;exitX=0;exitY=0;exitDx=0;exitDy=0;" parent="1" source="Pu0zvANKRgPWiGbxQ75c-110" target="Pu0zvANKRgPWiGbxQ75c-94" edge="1">
          <mxGeometry width="50" height="50" relative="1" as="geometry">
            <mxPoint x="994" y="847" as="sourcePoint" />
            <mxPoint x="360" y="714" as="targetPoint" />
          </mxGeometry>
        </mxCell>
        <mxCell id="Pu0zvANKRgPWiGbxQ75c-115" value="" style="endArrow=none;html=1;rounded=0;entryX=0.5;entryY=1;entryDx=0;entryDy=0;exitX=0.5;exitY=0;exitDx=0;exitDy=0;" parent="1" source="Pu0zvANKRgPWiGbxQ75c-110" target="Pu0zvANKRgPWiGbxQ75c-97" edge="1">
          <mxGeometry width="50" height="50" relative="1" as="geometry">
            <mxPoint x="976" y="854" as="sourcePoint" />
            <mxPoint x="588" y="714" as="targetPoint" />
          </mxGeometry>
        </mxCell>
        <mxCell id="Pu0zvANKRgPWiGbxQ75c-116" value="" style="endArrow=none;html=1;rounded=0;entryX=0.25;entryY=1;entryDx=0;entryDy=0;exitX=0.5;exitY=0;exitDx=0;exitDy=0;" parent="1" source="Pu0zvANKRgPWiGbxQ75c-110" target="Pu0zvANKRgPWiGbxQ75c-98" edge="1">
          <mxGeometry width="50" height="50" relative="1" as="geometry">
            <mxPoint x="988" y="837" as="sourcePoint" />
            <mxPoint x="832" y="714" as="targetPoint" />
          </mxGeometry>
        </mxCell>
        <mxCell id="Pu0zvANKRgPWiGbxQ75c-117" value="" style="endArrow=none;html=1;rounded=0;entryX=0.25;entryY=1;entryDx=0;entryDy=0;exitX=1;exitY=0.5;exitDx=0;exitDy=0;edgeStyle=orthogonalEdgeStyle;" parent="1" source="Pu0zvANKRgPWiGbxQ75c-110" target="Pu0zvANKRgPWiGbxQ75c-96" edge="1">
          <mxGeometry width="50" height="50" relative="1" as="geometry">
            <mxPoint x="1012" y="854" as="sourcePoint" />
            <mxPoint x="1172" y="714" as="targetPoint" />
          </mxGeometry>
        </mxCell>
        <mxCell id="Pu0zvANKRgPWiGbxQ75c-118" value="" style="fontSize=12;html=1;endArrow=ERzeroToMany;startArrow=ERmandOne;rounded=0;entryX=0.495;entryY=1.033;entryDx=0;entryDy=0;entryPerimeter=0;" parent="1" target="Pu0zvANKRgPWiGbxQ75c-128" edge="1">
          <mxGeometry width="100" height="100" relative="1" as="geometry">
            <mxPoint x="1512" y="992" as="sourcePoint" />
            <mxPoint x="1650" y="727" as="targetPoint" />
            <Array as="points" />
          </mxGeometry>
        </mxCell>
        <mxCell id="Pu0zvANKRgPWiGbxQ75c-119" value="Organizes" style="text;html=1;align=center;verticalAlign=middle;resizable=0;points=[];autosize=1;strokeColor=none;fillColor=none;" parent="1" vertex="1">
          <mxGeometry x="1578" y="743" width="80" height="30" as="geometry" />
        </mxCell>
        <mxCell id="-UnPVVqGj8pmeY0zWDKo-2" value="article_type" style="text;html=1;align=center;verticalAlign=middle;resizable=0;points=[];autosize=1;strokeColor=none;fillColor=none;" parent="1" vertex="1">
          <mxGeometry x="1010" y="265" width="80" height="30" as="geometry" />
        </mxCell>
        <mxCell id="-UnPVVqGj8pmeY0zWDKo-3" value="user_type" style="text;html=1;align=center;verticalAlign=middle;resizable=0;points=[];autosize=1;strokeColor=none;fillColor=none;" parent="1" vertex="1">
          <mxGeometry x="868" y="878" width="80" height="30" as="geometry" />
        </mxCell>
        <mxCell id="aB5LagIoBiGOEzeyCDAx-1" value="Writes" style="text;html=1;align=center;verticalAlign=middle;resizable=0;points=[];autosize=1;strokeColor=none;fillColor=none;" vertex="1" parent="1">
          <mxGeometry x="370" y="457" width="60" height="30" as="geometry" />
        </mxCell>
        <mxCell id="aB5LagIoBiGOEzeyCDAx-2" value="Writes" style="text;html=1;align=center;verticalAlign=middle;resizable=0;points=[];autosize=1;strokeColor=none;fillColor=none;" vertex="1" parent="1">
          <mxGeometry x="792" y="557" width="60" height="30" as="geometry" />
        </mxCell>
        <mxCell id="Pu0zvANKRgPWiGbxQ75c-121" value="INTERVENTION_PARTICIPATION" style="shape=table;startSize=30;container=1;collapsible=1;childLayout=tableLayout;fixedRows=1;rowLines=1;fontStyle=1;align=center;resizeLast=1;strokeColor=default;noLabel=0;rounded=0;html=1;" parent="1" vertex="1">
          <mxGeometry x="1314" y="808.0011764705882" width="400" height="130" as="geometry" />
        </mxCell>
        <mxCell id="Pu0zvANKRgPWiGbxQ75c-122" value="" style="shape=partialRectangle;collapsible=0;dropTarget=0;pointerEvents=0;fillColor=none;points=[[0,0.5],[1,0.5]];portConstraint=eastwest;top=0;left=0;right=0;bottom=1;" parent="Pu0zvANKRgPWiGbxQ75c-121" vertex="1">
          <mxGeometry y="30" width="400" height="20" as="geometry" />
        </mxCell>
        <mxCell id="Pu0zvANKRgPWiGbxQ75c-123" value="PK" style="shape=partialRectangle;overflow=hidden;connectable=0;fillColor=none;top=0;left=0;bottom=0;right=0;fontStyle=1;" parent="Pu0zvANKRgPWiGbxQ75c-122" vertex="1">
          <mxGeometry width="30" height="20" as="geometry">
            <mxRectangle width="30" height="20" as="alternateBounds" />
          </mxGeometry>
        </mxCell>
        <mxCell id="Pu0zvANKRgPWiGbxQ75c-124" value="participation_id" style="shape=partialRectangle;overflow=hidden;connectable=0;fillColor=none;top=0;left=0;bottom=0;right=0;align=left;spacingLeft=6;fontStyle=5;" parent="Pu0zvANKRgPWiGbxQ75c-122" vertex="1">
          <mxGeometry x="30" width="370" height="20" as="geometry">
            <mxRectangle width="370" height="20" as="alternateBounds" />
          </mxGeometry>
        </mxCell>
        <mxCell id="Pu0zvANKRgPWiGbxQ75c-125" value="" style="shape=partialRectangle;collapsible=0;dropTarget=0;pointerEvents=0;fillColor=none;points=[[0,0.5],[1,0.5]];portConstraint=eastwest;top=0;left=0;right=0;bottom=0;" parent="Pu0zvANKRgPWiGbxQ75c-121" vertex="1">
          <mxGeometry y="50" width="400" height="60" as="geometry" />
        </mxCell>
        <mxCell id="Pu0zvANKRgPWiGbxQ75c-126" value="FK1&#xa;FK2" style="shape=partialRectangle;overflow=hidden;connectable=0;fillColor=none;top=0;left=0;bottom=0;right=0;" parent="Pu0zvANKRgPWiGbxQ75c-125" vertex="1">
          <mxGeometry width="30" height="60" as="geometry">
            <mxRectangle width="30" height="60" as="alternateBounds" />
          </mxGeometry>
        </mxCell>
        <mxCell id="Pu0zvANKRgPWiGbxQ75c-127" value="intervention_id int NOT NULL&lt;br&gt;&lt;br&gt;volunteer_id int NOT NULL" style="shape=partialRectangle;overflow=hidden;connectable=0;fillColor=none;top=0;left=0;bottom=0;right=0;align=left;spacingLeft=6;fontStyle=0;html=1;" parent="Pu0zvANKRgPWiGbxQ75c-125" vertex="1">
          <mxGeometry x="30" width="370" height="60" as="geometry">
            <mxRectangle width="370" height="60" as="alternateBounds" />
          </mxGeometry>
        </mxCell>
        <mxCell id="Pu0zvANKRgPWiGbxQ75c-128" value="" style="shape=partialRectangle;collapsible=0;dropTarget=0;pointerEvents=0;fillColor=none;points=[[0,0.5],[1,0.5]];portConstraint=eastwest;top=0;left=0;right=0;bottom=0;" parent="Pu0zvANKRgPWiGbxQ75c-121" vertex="1">
          <mxGeometry y="110" width="400" height="20" as="geometry" />
        </mxCell>
        <mxCell id="Pu0zvANKRgPWiGbxQ75c-129" value="" style="shape=partialRectangle;overflow=hidden;connectable=0;fillColor=none;top=0;left=0;bottom=0;right=0;" parent="Pu0zvANKRgPWiGbxQ75c-128" vertex="1">
          <mxGeometry width="30" height="20" as="geometry">
            <mxRectangle width="30" height="20" as="alternateBounds" />
          </mxGeometry>
        </mxCell>
        <mxCell id="Pu0zvANKRgPWiGbxQ75c-130" value="volunteer_present boolean DEFAULT false" style="shape=partialRectangle;overflow=hidden;connectable=0;fillColor=none;top=0;left=0;bottom=0;right=0;align=left;spacingLeft=6;" parent="Pu0zvANKRgPWiGbxQ75c-128" vertex="1">
          <mxGeometry x="30" width="370" height="20" as="geometry">
            <mxRectangle width="370" height="20" as="alternateBounds" />
          </mxGeometry>
        </mxCell>
        <mxCell id="aB5LagIoBiGOEzeyCDAx-3" value="" style="edgeStyle=orthogonalEdgeStyle;fontSize=12;html=1;endArrow=ERzeroToMany;startArrow=ERmandOne;rounded=0;entryX=0.999;entryY=0.333;entryDx=0;entryDy=0;entryPerimeter=0;exitX=0.75;exitY=1;exitDx=0;exitDy=0;" edge="1" parent="1" source="Pu0zvANKRgPWiGbxQ75c-95" target="Pu0zvANKRgPWiGbxQ75c-9">
          <mxGeometry width="100" height="100" relative="1" as="geometry">
            <mxPoint x="1478" y="740" as="sourcePoint" />
            <mxPoint x="1218" y="1147" as="targetPoint" />
            <Array as="points">
              <mxPoint x="1531" y="710" />
              <mxPoint x="1840" y="710" />
              <mxPoint x="1840" y="1300" />
              <mxPoint x="1700" y="1300" />
              <mxPoint x="1700" y="1411" />
            </Array>
          </mxGeometry>
        </mxCell>
        <mxCell id="aB5LagIoBiGOEzeyCDAx-4" value="Writes" style="text;html=1;align=center;verticalAlign=middle;resizable=0;points=[];autosize=1;strokeColor=none;fillColor=none;" vertex="1" parent="1">
          <mxGeometry x="1750" y="680" width="60" height="30" as="geometry" />
        </mxCell>
        <mxCell id="aB5LagIoBiGOEzeyCDAx-6" value="" style="edgeStyle=orthogonalEdgeStyle;fontSize=12;html=1;endArrow=ERzeroToMany;startArrow=ERmandOne;rounded=0;exitX=1;exitY=0.5;exitDx=0;exitDy=0;entryX=0.503;entryY=0;entryDx=0;entryDy=0;entryPerimeter=0;" edge="1" parent="1" source="Pu0zvANKRgPWiGbxQ75c-95" target="Pu0zvANKRgPWiGbxQ75c-22">
          <mxGeometry width="100" height="100" relative="1" as="geometry">
            <mxPoint x="1898" y="1047" as="sourcePoint" />
            <mxPoint x="1988" y="1186.5999755859375" as="targetPoint" />
            <Array as="points">
              <mxPoint x="1986" y="669" />
            </Array>
          </mxGeometry>
        </mxCell>
        <mxCell id="aB5LagIoBiGOEzeyCDAx-7" value="Creates" style="text;html=1;align=center;verticalAlign=middle;resizable=0;points=[];autosize=1;strokeColor=none;fillColor=none;" vertex="1" parent="1">
          <mxGeometry x="1640" y="640" width="70" height="30" as="geometry" />
        </mxCell>
        <mxCell id="aB5LagIoBiGOEzeyCDAx-8" value="Writes" style="text;html=1;align=center;verticalAlign=middle;resizable=0;points=[];autosize=1;strokeColor=none;fillColor=none;" vertex="1" parent="1">
          <mxGeometry x="1540" y="540" width="60" height="30" as="geometry" />
        </mxCell>
        <mxCell id="aB5LagIoBiGOEzeyCDAx-10" value="Participates in&lt;div&gt;Intervention&lt;/div&gt;" style="text;html=1;align=center;verticalAlign=middle;resizable=0;points=[];autosize=1;strokeColor=none;fillColor=none;" vertex="1" parent="1">
          <mxGeometry x="1198" y="773" width="100" height="40" as="geometry" />
        </mxCell>
        <mxCell id="aB5LagIoBiGOEzeyCDAx-11" value="Intervention Result is&lt;div&gt;produced from Intervention&lt;/div&gt;" style="text;html=1;align=center;verticalAlign=middle;resizable=0;points=[];autosize=1;strokeColor=none;fillColor=none;" vertex="1" parent="1">
          <mxGeometry x="1470" y="1300" width="170" height="40" as="geometry" />
        </mxCell>
        <mxCell id="aB5LagIoBiGOEzeyCDAx-13" value="&#39;F&#39;" style="text;html=1;align=center;verticalAlign=middle;resizable=0;points=[];autosize=1;strokeColor=none;fillColor=none;" vertex="1" parent="1">
          <mxGeometry x="833" y="400" width="40" height="30" as="geometry" />
        </mxCell>
        <mxCell id="aB5LagIoBiGOEzeyCDAx-14" value="&#39;B&#39;" style="text;html=1;align=center;verticalAlign=middle;resizable=0;points=[];autosize=1;strokeColor=none;fillColor=none;" vertex="1" parent="1">
          <mxGeometry x="1110" y="390" width="40" height="30" as="geometry" />
        </mxCell>
        <mxCell id="aB5LagIoBiGOEzeyCDAx-15" value="&#39;VOL&#39;" style="text;html=1;align=center;verticalAlign=middle;resizable=0;points=[];autosize=1;strokeColor=none;fillColor=none;" vertex="1" parent="1">
          <mxGeometry x="1080" y="837" width="50" height="30" as="geometry" />
        </mxCell>
        <mxCell id="aB5LagIoBiGOEzeyCDAx-16" value="&#39;ORG&#39;" style="text;html=1;align=center;verticalAlign=middle;resizable=0;points=[];autosize=1;strokeColor=none;fillColor=none;" vertex="1" parent="1">
          <mxGeometry x="995" y="778" width="60" height="30" as="geometry" />
        </mxCell>
        <mxCell id="aB5LagIoBiGOEzeyCDAx-17" value="&#39;MEM&#39;" style="text;html=1;align=center;verticalAlign=middle;resizable=0;points=[];autosize=1;strokeColor=none;fillColor=none;" vertex="1" parent="1">
          <mxGeometry x="920" y="730" width="60" height="30" as="geometry" />
        </mxCell>
        <mxCell id="aB5LagIoBiGOEzeyCDAx-18" value="&#39;PMK&#39;" style="text;html=1;align=center;verticalAlign=middle;resizable=0;points=[];autosize=1;strokeColor=none;fillColor=none;" vertex="1" parent="1">
          <mxGeometry x="818" y="730" width="50" height="30" as="geometry" />
        </mxCell>
        <mxCell id="aB5LagIoBiGOEzeyCDAx-19" value="&#39;HCP&#39;" style="text;html=1;align=center;verticalAlign=middle;resizable=0;points=[];autosize=1;strokeColor=none;fillColor=none;" vertex="1" parent="1">
          <mxGeometry x="590" y="720" width="50" height="30" as="geometry" />
        </mxCell>
        <mxCell id="aB5LagIoBiGOEzeyCDAx-20" value="&#39;ADM&#39;" style="text;html=1;align=center;verticalAlign=middle;resizable=0;points=[];autosize=1;strokeColor=none;fillColor=none;" vertex="1" parent="1">
          <mxGeometry x="440" y="730" width="50" height="30" as="geometry" />
        </mxCell>
      </root>
    </mxGraphModel>
  </diagram>
</mxfile>
